<svg width="48" height="48" viewBox="0 0 48 48" fill="none" xmlns="http://www.w3.org/2000/svg">
<path d="M0 24C0 10.7452 10.7452 0 24 0C37.2548 0 48 10.7452 48 24C48 37.2548 37.2548 48 24 48C10.7452 48 0 37.2548 0 24Z" fill="#2DCA72"/>
<path d="M19.6814 31V17.9091H24.3476C25.366 17.9091 26.2098 18.0945 26.8788 18.4652C27.5479 18.8359 28.0486 19.343 28.3809 19.9865C28.7133 20.6257 28.8795 21.3459 28.8795 22.147C28.8795 22.9524 28.7112 23.6768 28.3746 24.3203C28.0422 24.9595 27.5393 25.4666 26.866 25.8416C26.197 26.2124 25.3554 26.3977 24.3412 26.3977H21.1324V24.723H24.1622C24.8057 24.723 25.3277 24.6122 25.7282 24.3906C26.1288 24.1648 26.4229 23.858 26.6104 23.4702C26.7979 23.0824 26.8916 22.6413 26.8916 22.147C26.8916 21.6527 26.7979 21.2138 26.6104 20.8303C26.4229 20.4467 26.1267 20.1463 25.7219 19.929C25.3213 19.7116 24.7929 19.603 24.1366 19.603H21.6565V31H19.6814Z" fill="white"/>
</svg>
